<svg width="1300" height="174" viewBox="0 0 1300 174" fill="none" xmlns="http://www.w3.org/2000/svg">
<path d="M295.762 55.1039H271.158V130.69H253.253V55.1039H228.778V39.164H295.762V55.1039Z" fill="#222529"/>
<path d="M377.855 130.69H359.95V93.668H326.329V130.69H308.423V39.164H326.329V77.8567H359.95V39.164H377.855V130.69Z" fill="#222529"/>
<path d="M458.31 130.69H425.848C415.543 130.69 408.286 128.933 404.078 125.419C399.956 121.82 397.895 115.521 397.895 106.523V39.164H458.31V55.1039H415.801V76.5713H445.557L444.269 92.5111H415.801V105.237C415.801 108.837 416.616 111.322 418.248 112.693C419.88 114.064 422.843 114.75 427.136 114.75H458.31V130.69Z" fill="#222529"/>
<path d="M562.379 130.69H535.07C524.765 130.69 517.294 128.719 512.656 124.776C508.105 120.749 505.829 114.236 505.829 105.237V39.164H523.734V105.237C523.734 108.837 524.55 111.322 526.182 112.693C527.814 114.064 530.776 114.75 535.07 114.75H562.379V130.69Z" fill="#222529"/>
<path d="M646.214 130.69H627.535L622.383 114.878H591.595L586.572 130.69H567.893L597.263 46.8769C598.551 43.9631 599.968 41.9492 601.514 40.8351C603.146 39.7211 605.121 39.164 607.44 39.164C609.759 39.164 611.605 39.6782 612.979 40.7066C614.439 41.735 615.727 43.7917 616.843 46.8769L646.214 130.69ZM618.26 99.8383L607.44 63.588L596.104 99.8383H618.26Z" fill="#222529"/>
<path d="M720.63 103.695C720.63 112.35 717.453 119.163 711.098 124.134C704.743 129.019 696.627 131.461 686.751 131.461C678.937 131.461 671.379 129.318 664.08 125.034C660.473 122.805 657.51 119.677 655.191 115.65C652.873 111.536 651.713 106.866 651.713 101.638L667.944 100.867C667.944 105.494 669.919 109.094 673.87 111.665C677.82 114.236 682.2 115.521 687.009 115.521C697.744 115.521 703.111 111.75 703.111 104.209C703.111 98.0387 699.461 94.3965 692.162 93.2824L677.219 91.7398C669.748 90.6258 663.822 87.9691 659.442 83.7699C655.063 79.5707 652.873 73.529 652.873 65.6448C652.873 57.7605 656.007 51.2475 662.276 46.1056C668.545 40.9637 676.446 38.3928 685.978 38.3928C695.597 38.3928 703.326 40.8352 709.165 45.72C715.005 50.519 717.925 56.7322 717.925 64.3593L701.952 65.1306C700.492 57.6748 695.468 53.947 686.88 53.947C681.642 53.947 677.52 55.061 674.514 57.2892C671.594 59.5173 670.134 62.174 670.134 65.2591C670.134 68.2586 671.208 70.6581 673.354 72.4578C675.501 74.1717 678.164 75.243 681.341 75.6714L696.026 77.214C712.429 79.4422 720.63 88.2691 720.63 103.695Z" fill="#222529"/>
<path d="M794.547 55.1039H769.943V130.69H752.038V55.1039H727.563V39.164H794.547V55.1039Z" fill="#222529"/>
<path d="M896.275 47.134C901.599 52.3616 904.262 60.0744 904.262 70.2725C904.262 80.4705 901.599 88.2262 896.275 93.5395C891.036 98.7671 883.608 101.381 873.99 101.381H856.342V130.69H838.436V39.164H873.99C883.608 39.164 891.036 41.8207 896.275 47.134ZM886.356 70.2725C886.356 60.1601 881.933 55.1039 873.088 55.1039H856.342V85.3125H873.088C877.382 85.3125 880.645 84.1556 882.878 81.8417C885.197 79.5279 886.356 75.6714 886.356 70.2725Z" fill="#222529"/>
<path d="M975.874 130.69H948.565C938.26 130.69 930.789 128.719 926.151 124.776C921.6 120.749 919.324 114.236 919.324 105.237V39.164H937.229V105.237C937.229 108.837 938.045 111.322 939.677 112.693C941.309 114.064 944.271 114.75 948.565 114.75H975.874V130.69Z" fill="#222529"/>
<path d="M1059.71 130.69H1041.03L1035.88 114.878H1005.09L1000.07 130.69H981.388L1010.76 46.8769C1012.05 43.9631 1013.46 41.9492 1015.01 40.8351C1016.64 39.7211 1018.62 39.164 1020.93 39.164C1023.25 39.164 1025.1 39.6782 1026.47 40.7066C1027.93 41.735 1029.22 43.7917 1030.34 46.8769L1059.71 130.69ZM1031.76 99.8383L1020.93 63.588L1009.6 99.8383H1031.76Z" fill="#222529"/>
<path d="M1143.79 39.164V121.434C1143.79 124.262 1142.93 126.705 1141.21 128.761C1139.49 130.732 1137.47 131.718 1135.16 131.718C1129.23 131.718 1124.38 128.29 1120.6 121.434L1088.91 71.9436V130.69H1071.01V39.164H1088.27L1125.88 99.067V39.164H1143.79Z" fill="#222529"/>
<path d="M1222.78 130.69H1190.32C1180.01 130.69 1172.76 128.933 1168.55 125.419C1164.42 121.82 1162.36 115.521 1162.36 106.523V39.164H1222.78V55.1039H1180.27V76.5713H1210.03L1208.74 92.5111H1180.27V105.237C1180.27 108.837 1181.09 111.322 1182.72 112.693C1184.35 114.064 1187.31 114.75 1191.61 114.75H1222.78V130.69Z" fill="#222529"/>
<path d="M1300 55.1039H1275.4V130.69H1257.49V55.1039H1233.02V39.164H1300V55.1039Z" fill="#222529"/>
<path d="M171.755 86.7992C171.739 134.697 133.312 173.522 85.907 173.539L171.755 86.7992ZM85.8775 0C120.75 0 150.768 21.0009 164.217 51.1688L50.6429 165.923C45.7941 163.715 41.1591 161.057 36.7978 157.981L107.278 86.7694H85.8775L25.1527 148.125C9.61224 132.422 0 110.729 0 86.7694C0 38.8483 38.4489 0 85.8775 0Z" fill="#222529"/>
</svg>
